<svg width="26" height="26" viewBox="0 0 26 26" fill="none" xmlns="http://www.w3.org/2000/svg">
  <!-- Icône personnalisée représentant le sur-mesure : règle + crayon -->

  <!-- Règle -->
  <path d="M3 8L23 8L23 11L3 11L3 8Z" fill="white" stroke="white" stroke-width="1.5" stroke-linecap="round" stroke-linejoin="round"/>
  <line x1="6" y1="8" x2="6" y2="11" stroke="white" stroke-width="1"/>
  <line x1="9" y1="8" x2="9" y2="10" stroke="white" stroke-width="1"/>
  <line x1="12" y1="8" x2="12" y2="11" stroke="white" stroke-width="1"/>
  <line x1="15" y1="8" x2="15" y2="10" stroke="white" stroke-width="1"/>
  <line x1="18" y1="8" x2="18" y2="11" stroke="white" stroke-width="1"/>
  <line x1="21" y1="8" x2="21" y2="10" stroke="white" stroke-width="1"/>

  <!-- Crayon stylisé -->
  <path d="M15 15L19 19L17 21L13 17L15 15Z" fill="white" stroke="white" stroke-width="1.5" stroke-linecap="round" stroke-linejoin="round"/>
  <path d="M19 19L21 17L23 19L21 21L19 19Z" fill="white" opacity="0.7"/>
  <line x1="13" y1="17" x2="11" y2="19" stroke="white" stroke-width="1.5" stroke-linecap="round"/>

  <!-- Engrenage (petit, pour symboliser la précision) -->
  <circle cx="7" cy="18" r="3" fill="none" stroke="white" stroke-width="1.5"/>
  <circle cx="7" cy="18" r="1.5" fill="white"/>
  <line x1="7" y1="15" x2="7" y2="15.5" stroke="white" stroke-width="1"/>
  <line x1="7" y1="20.5" x2="7" y2="21" stroke="white" stroke-width="1"/>
  <line x1="4" y1="18" x2="4.5" y2="18" stroke="white" stroke-width="1"/>
  <line x1="9.5" y1="18" x2="10" y2="18" stroke="white" stroke-width="1"/>
</svg>
